<svg xmlns="http://www.w3.org/2000/svg" xmlns:xlink="http://www.w3.org/1999/xlink" width="2000" zoomAndPan="magnify" viewBox="0 0 1500 1499.999933" height="2000" preserveAspectRatio="xMidYMid meet" version="1.0"><defs><g/></defs><g fill="#000000" fill-opacity="1"><g transform="translate(109.990094, 1043.256874)"><g><path d="M 35.390625 -486.546875 L 186.359375 -486.546875 C 231.960938 -486.546875 268.328125 -476.8125 295.453125 -457.34375 C 322.585938 -437.882812 336.15625 -406.335938 336.15625 -362.703125 C 336.15625 -313.941406 315.90625 -279.144531 275.40625 -258.3125 C 344.601562 -246.125 379.203125 -205.234375 379.203125 -135.640625 C 379.203125 -94.753906 365.046875 -61.925781 336.734375 -37.15625 C 308.429688 -12.382812 269.515625 0 219.984375 0 L 35.390625 0 Z M 146.265625 -296.046875 L 155.109375 -296.046875 C 179.878906 -296.046875 198.359375 -300.367188 210.546875 -309.015625 C 222.734375 -317.671875 228.828125 -331.828125 228.828125 -351.484375 C 228.828125 -384.515625 204.253906 -401.03125 155.109375 -401.03125 L 146.265625 -401.03125 Z M 146.265625 -85.515625 L 181.046875 -85.515625 C 235.304688 -85.515625 262.4375 -103.597656 262.4375 -139.765625 C 262.4375 -161.390625 255.65625 -176.921875 242.09375 -186.359375 C 228.53125 -195.796875 208.179688 -200.515625 181.046875 -200.515625 L 146.265625 -200.515625 Z M 146.265625 -85.515625 "/></g></g></g><g fill="#ea1f27" fill-opacity="1"><g transform="translate(469.743973, 1043.256874)"><g><path d="M 102.609375 -126.203125 C 121.484375 -126.203125 137.503906 -119.613281 150.671875 -106.4375 C 163.847656 -93.269531 170.4375 -77.253906 170.4375 -58.390625 C 170.4375 -39.910156 163.847656 -24.082031 150.671875 -10.90625 C 137.503906 2.257812 121.484375 8.84375 102.609375 8.84375 C 84.128906 8.84375 68.304688 2.257812 55.140625 -10.90625 C 41.972656 -24.082031 35.390625 -39.910156 35.390625 -58.390625 C 35.390625 -77.253906 41.972656 -93.269531 55.140625 -106.4375 C 68.304688 -119.613281 84.128906 -126.203125 102.609375 -126.203125 Z M 102.609375 -126.203125 "/></g></g></g><g fill="#000000" fill-opacity="1"><g transform="translate(642.548646, 1043.256874)"><g><path d="M 64.28125 0 L 207.59375 -166.90625 C 199.332031 -162.1875 187.734375 -159.828125 172.796875 -159.828125 C 155.492188 -159.828125 137.992188 -163.460938 120.296875 -170.734375 C 102.609375 -178.003906 86 -188.421875 70.46875 -201.984375 C 54.945312 -215.546875 42.269531 -233.53125 32.4375 -255.9375 C 22.601562 -278.351562 17.6875 -303.128906 17.6875 -330.265625 C 17.6875 -357.785156 22.894531 -382.453125 33.3125 -404.265625 C 43.738281 -426.085938 57.695312 -443.390625 75.1875 -456.171875 C 92.6875 -468.953125 111.851562 -478.679688 132.6875 -485.359375 C 153.53125 -492.046875 175.351562 -495.390625 198.15625 -495.390625 C 252.800781 -495.390625 298.800781 -479.460938 336.15625 -447.609375 C 373.507812 -415.765625 392.1875 -376.648438 392.1875 -330.265625 C 392.1875 -290.941406 386.679688 -258.597656 375.671875 -233.234375 C 364.660156 -207.878906 344.609375 -175.546875 315.515625 -136.234375 L 201.109375 0 Z M 277.1875 -330.265625 C 277.1875 -351.492188 270.304688 -369.085938 256.546875 -383.046875 C 242.785156 -397.003906 225.09375 -403.984375 203.46875 -403.984375 C 181.84375 -403.984375 163.953125 -397.003906 149.796875 -383.046875 C 135.640625 -369.085938 128.5625 -351.492188 128.5625 -330.265625 C 128.5625 -308.640625 135.738281 -290.648438 150.09375 -276.296875 C 164.445312 -261.941406 182.238281 -254.765625 203.46875 -254.765625 C 223.90625 -254.765625 241.300781 -261.941406 255.65625 -276.296875 C 270.007812 -290.648438 277.1875 -308.640625 277.1875 -330.265625 Z M 277.1875 -330.265625 "/></g></g></g><g fill="#000000" fill-opacity="1"><g transform="translate(1015.857769, 1043.256874)"><g><path d="M 342.0625 -486.546875 L 198.75 -319.640625 C 207 -324.359375 218.597656 -326.71875 233.546875 -326.71875 C 250.835938 -326.71875 268.328125 -323.082031 286.015625 -315.8125 C 303.710938 -308.539062 320.328125 -298.117188 335.859375 -284.546875 C 351.390625 -270.984375 364.066406 -252.992188 373.890625 -230.578125 C 383.722656 -208.171875 388.640625 -183.40625 388.640625 -156.28125 C 388.640625 -128.757812 383.429688 -104.085938 373.015625 -82.265625 C 362.597656 -60.441406 348.640625 -43.140625 331.140625 -30.359375 C 313.648438 -17.585938 294.484375 -7.859375 273.640625 -1.171875 C 252.804688 5.503906 230.988281 8.84375 208.1875 8.84375 C 153.53125 8.84375 107.523438 -7.078125 70.171875 -38.921875 C 32.828125 -70.765625 14.15625 -109.882812 14.15625 -156.28125 C 14.15625 -195.601562 19.660156 -227.941406 30.671875 -253.296875 C 41.679688 -278.660156 61.734375 -311 90.828125 -350.3125 L 205.234375 -486.546875 Z M 129.15625 -156.28125 C 129.15625 -135.050781 136.035156 -117.457031 149.796875 -103.5 C 163.554688 -89.539062 181.25 -82.5625 202.875 -82.5625 C 224.5 -82.5625 242.382812 -89.539062 256.53125 -103.5 C 270.6875 -117.457031 277.765625 -135.050781 277.765625 -156.28125 C 277.765625 -177.90625 270.585938 -195.890625 256.234375 -210.234375 C 241.890625 -224.585938 224.101562 -231.765625 202.875 -231.765625 C 182.425781 -231.765625 165.023438 -224.585938 150.671875 -210.234375 C 136.328125 -195.890625 129.15625 -177.90625 129.15625 -156.28125 Z M 129.15625 -156.28125 "/></g></g></g></svg>